<svg width="16" height="17" viewBox="0 0 16 17" fill="none" xmlns="http://www.w3.org/2000/svg">
<g clip-path="url(#clip0_334_619)">
<path d="M2.30001 8.96658C1.00001 7.56658 1.00001 5.29991 2.30001 3.89991C2.96668 3.16658 3.80001 2.83325 4.66668 2.83325C5.33335 2.83325 6.03334 3.06658 6.60001 3.49991C6.83334 3.69991 7.03335 3.93325 7.23335 4.16658L8.03335 5.23325L8.83334 4.16658C9.03334 3.89991 9.23334 3.66658 9.46668 3.49991C10 3.03325 10.6667 2.83325 11.3667 2.83325C12.2 2.83325 13.0667 3.16658 13.7 3.89991C15 5.29991 15 7.56658 13.7 8.96658L8.46668 14.2999C8.23334 14.5666 7.80001 14.5666 7.56668 14.2999L2.30001 8.96658Z" stroke="#FCFCFC" stroke-width="2" stroke-miterlimit="10" stroke-linecap="round" stroke-linejoin="round"/>
</g>
<defs>
<clipPath id="clip0_334_619">
<rect width="16" height="16" fill="white" transform="translate(0 0.5)"/>
</clipPath>
</defs>
</svg>
