<svg width="17" height="17" viewBox="0 0 17 17" fill="none" xmlns="http://www.w3.org/2000/svg">
<g clip-path="url(#clip0_334_644)">
<path fill-rule="evenodd" clip-rule="evenodd" d="M11.3619 1.36201C11.6223 1.10166 12.0444 1.10166 12.3047 1.36201L14.3047 3.36201C14.5651 3.62236 14.5651 4.04447 14.3047 4.30482L12.3047 6.30482C12.0444 6.56517 11.6223 6.56517 11.3619 6.30482C11.1016 6.04447 11.1016 5.62236 11.3619 5.36201L12.2239 4.50008H6.16666C3.96818 4.50008 2.16666 6.3016 2.16666 8.50008C2.16666 8.86828 1.86818 9.16675 1.49999 9.16675C1.1318 9.16675 0.833328 8.86828 0.833328 8.50008C0.833328 5.56523 3.23181 3.16675 6.16666 3.16675H12.2239L11.3619 2.30482C11.1016 2.04447 11.1016 1.62236 11.3619 1.36201ZM16.1667 8.50008C16.1667 8.13188 15.8682 7.83342 15.5 7.83342C15.1318 7.83342 14.8333 8.13188 14.8333 8.50008C14.8333 10.6985 13.0318 12.5001 10.8333 12.5001H4.77613L5.63807 11.6381C5.89842 11.3778 5.89842 10.9557 5.63807 10.6953C5.37772 10.435 4.95561 10.435 4.69526 10.6953L2.69526 12.6953C2.43491 12.9557 2.43491 13.3778 2.69526 13.6381L4.69526 15.6381C4.95561 15.8985 5.37772 15.8985 5.63807 15.6381C5.89842 15.3778 5.89842 14.9557 5.63807 14.6953L4.77613 13.8334H10.8333C13.7682 13.8334 16.1667 11.4349 16.1667 8.50008Z" fill="#9898A6"/>
</g>
<defs>
<clipPath id="clip0_334_644">
<rect width="16" height="16" fill="white" transform="translate(0.5 0.5)"/>
</clipPath>
</defs>
</svg>
