<svg width="16" height="17" viewBox="0 0 16 17" fill="none" xmlns="http://www.w3.org/2000/svg">
<g clip-path="url(#clip0_334_622)">
<path d="M4.16666 8.5C4.16666 8.77614 3.9428 9 3.66666 9C3.39051 9 3.16666 8.77614 3.16666 8.5C3.16666 8.22386 3.39051 8 3.66666 8C3.9428 8 4.16666 8.22386 4.16666 8.5Z" fill="#FCFCFC" stroke="#FCFCFC"/>
<path d="M8.5 8.5C8.5 8.77614 8.27614 9 8 9C7.72386 9 7.5 8.77614 7.5 8.5C7.5 8.22386 7.72386 8 8 8C8.27614 8 8.5 8.22386 8.5 8.5Z" fill="#FCFCFC" stroke="#FCFCFC"/>
<path d="M12.8333 8.5C12.8333 8.77614 12.6095 9 12.3333 9C12.0572 9 11.8333 8.77614 11.8333 8.5C11.8333 8.22386 12.0572 8 12.3333 8C12.6095 8 12.8333 8.22386 12.8333 8.5Z" fill="#FCFCFC" stroke="#FCFCFC"/>
</g>
<defs>
<clipPath id="clip0_334_622">
<rect width="16" height="16" fill="white" transform="translate(0 0.5)"/>
</clipPath>
</defs>
</svg>
