<svg width="17" height="17" viewBox="0 0 17 17" fill="none" xmlns="http://www.w3.org/2000/svg">
<g clip-path="url(#clip0_334_640)">
<path d="M11.4607 8.38191L11.5514 8.48333L11.4607 8.58475C11.4511 8.5955 11.4387 8.60661 11.4228 8.61723L11.4227 8.61719L11.4169 8.62118L2.5836 14.6878L2.57249 14.6955L2.56181 14.7037C2.53221 14.7265 2.50874 14.7322 2.49134 14.7333C2.47152 14.7345 2.44728 14.7301 2.42185 14.7167C2.36986 14.6891 2.33333 14.6359 2.33333 14.5667V2.43333C2.33333 2.36413 2.36986 2.31093 2.42185 2.28334C2.44728 2.26985 2.47152 2.26551 2.49134 2.26674C2.50874 2.26783 2.53221 2.27354 2.56181 2.29631L2.573 2.30492L2.58465 2.31288L11.418 8.34622L11.418 8.34624L11.4228 8.34944C11.4387 8.36006 11.4511 8.37117 11.4607 8.38191ZM12.3333 8.04853V7.60937V2.16667C12.3333 2.07614 12.4095 2 12.5 2H14.5C14.5905 2 14.6667 2.07614 14.6667 2.16667V14.8333C14.6667 14.9239 14.5905 15 14.5 15H12.5C12.4095 15 12.3333 14.9239 12.3333 14.8333V9.35731V8.91813V8.04853Z" fill="#FCFCFC" stroke="#FCFCFC"/>
</g>
<defs>
<clipPath id="clip0_334_640">
<rect width="16" height="16" fill="white" transform="translate(0.5 0.5)"/>
</clipPath>
</defs>
</svg>
