<svg width="32" height="35" viewBox="0 0 32 35" fill="none" xmlns="http://www.w3.org/2000/svg">
<path d="M31.1376 3.4375V31.5625C31.1376 32.3084 30.8413 33.0238 30.3139 33.5512C29.7864 34.0787 29.0711 34.375 28.3251 34.375H21.997C21.2511 34.375 20.5357 34.0787 20.0083 33.5512C19.4808 33.0238 19.1845 32.3084 19.1845 31.5625V3.4375C19.1845 2.69158 19.4808 1.97621 20.0083 1.44876C20.5357 0.921316 21.2511 0.625 21.997 0.625H28.3251C29.0711 0.625 29.7864 0.921316 30.3139 1.44876C30.8413 1.97621 31.1376 2.69158 31.1376 3.4375ZM9.34076 0.625H3.01263C2.26671 0.625 1.55134 0.921316 1.0239 1.44876C0.49645 1.97621 0.200134 2.69158 0.200134 3.4375V31.5625C0.200134 32.3084 0.49645 33.0238 1.0239 33.5512C1.55134 34.0787 2.26671 34.375 3.01263 34.375H9.34076C10.0867 34.375 10.8021 34.0787 11.3295 33.5512C11.8569 33.0238 12.1533 32.3084 12.1533 31.5625V3.4375C12.1533 2.69158 11.8569 1.97621 11.3295 1.44876C10.8021 0.921316 10.0867 0.625 9.34076 0.625Z" fill="#F8F8F9"/>
</svg>
