<svg width="17" height="17" viewBox="0 0 17 17" fill="none" xmlns="http://www.w3.org/2000/svg">
<g clip-path="url(#clip0_334_634)">
<path d="M4.66667 9.35662V14.8333C4.66667 14.9239 4.59053 15 4.5 15H2.5C2.40948 15 2.33334 14.9239 2.33334 14.8333V2.16667C2.33334 2.07614 2.40948 2 2.5 2H4.5C4.59053 2 4.66667 2.07614 4.66667 2.16667V7.61005V8.04853V8.91813V9.35662ZM5.53919 8.58462L5.44851 8.48333L5.53919 8.38204C5.54895 8.37114 5.56137 8.36001 5.57725 8.34943L5.57727 8.34945L5.58201 8.34622L14.4153 2.31288L14.427 2.30492L14.4382 2.29631C14.4678 2.27354 14.4913 2.26783 14.5087 2.26674C14.5285 2.26551 14.5527 2.26985 14.5781 2.28334C14.6301 2.31093 14.6667 2.36413 14.6667 2.43333V14.5667C14.6667 14.6359 14.6301 14.6891 14.5781 14.7167C14.5527 14.7301 14.5285 14.7345 14.5087 14.7333C14.4913 14.7322 14.4678 14.7265 14.4382 14.7037L14.4275 14.6955L14.4164 14.6878L5.58307 8.62118L5.5831 8.62114L5.57725 8.61724C5.56137 8.60666 5.54895 8.59553 5.53919 8.58462Z" fill="#FCFCFC" stroke="#FCFCFC"/>
</g>
<defs>
<clipPath id="clip0_334_634">
<rect width="16" height="16" fill="white" transform="translate(0.5 0.5)"/>
</clipPath>
</defs>
</svg>
