<svg width="17" height="17" viewBox="0 0 17 17" fill="none" xmlns="http://www.w3.org/2000/svg">
<g clip-path="url(#clip0_334_631)">
<path d="M15.2562 4.35569L15.2671 4.36659L15.2752 4.3747L15.3003 4.39987L15.3336 4.43317L15.3502 4.44976L15.4 4.49969L15.2562 4.35569ZM15.2562 4.35569L15.315 4.33491L15.2562 4.35569ZM15.2556 4.35502L15.3161 4.33386L15.3932 4.30686L15.4 4.30448L15.413 4.29992L15.2556 4.35502ZM15.2556 4.35502L15.2169 4.31632L15.2006 4.29992L15.1801 4.2794L15.1787 4.28073C15.1755 4.28394 15.1684 4.29095 15.1598 4.29992C15.1516 4.30845 15.142 4.31876 15.133 4.32926C15.1248 4.33873 15.1146 4.35119 15.1034 4.36659C15.0924 4.38169 15.0806 4.39962 15.0689 4.42034M15.2556 4.35502L15.0689 4.42034M15.0689 4.42034L15.04 4.43047C15.0378 4.41803 15.0363 4.40664 15.0353 4.39654C15.0341 4.3846 15.0336 4.3733 15.0334 4.36659C15.0333 4.36286 15.0333 4.36055 15.0333 4.36032C15.0333 4.36009 15.0333 4.36195 15.0333 4.36659V4.43281L15.0255 4.43553C15.0104 4.39239 15.0046 4.35513 15.0021 4.33116C15.0015 4.32529 15.0011 4.32022 15.0008 4.31605C15.0003 4.30889 15.0001 4.30317 15.0001 4.29992C15 4.29858 15 4.29766 15 4.29723L15 4.29634C15 4.29634 15 4.29722 15 4.29992V4.33325V4.40484C14.993 4.38734 14.987 4.36939 14.9821 4.35111C14.972 4.31293 14.9667 4.2733 14.9667 4.23325V4.33962C14.9509 4.30055 14.9435 4.26671 14.9396 4.24356C14.9369 4.22757 14.9354 4.21314 14.9345 4.20076C14.9341 4.19449 14.9338 4.18851 14.9336 4.18285L14.9334 4.17454L14.9333 4.17052L14.9333 4.16853L14.9333 4.16755L14.9333 4.16728L15.0689 4.42034ZM13.5536 5.52014L14.4071 4.66659H13.2H11.3C10.4672 4.66659 9.63449 5.11716 9.20592 5.84038L5.77886 11.3303C5.23124 12.1632 4.35152 12.6666 3.36667 12.6666H2.16667C2.07614 12.6666 2 12.5904 2 12.4999C2 12.4094 2.07614 12.3333 2.16667 12.3333H3.36667C4.22936 12.3333 5.02886 11.9189 5.49198 11.1628L8.92113 5.66952C9.46874 4.83664 10.3485 4.33325 11.3333 4.33325H13.2333H14.4404L13.5869 3.4797L12.7202 2.61303L12.3667 2.96659L12.7202 2.61303C12.6777 2.57047 12.6667 2.5298 12.6667 2.49992C12.6667 2.47003 12.6777 2.42936 12.7202 2.38681L12.3667 2.03325L12.7202 2.38681C12.7628 2.34425 12.8034 2.33325 12.8333 2.33325C12.8632 2.33325 12.9039 2.34425 12.9464 2.38681L14.9464 4.38681L14.9667 4.40703V4.44062L15 4.47389V4.50703L15.0168 4.52381C15.012 4.53421 15.0073 4.54514 15.0029 4.5566L14.9464 4.61303L12.9464 6.61303C12.9039 6.65559 12.8632 6.66659 12.8333 6.66659C12.8109 6.66659 12.7589 6.66004 12.6711 6.59567C12.6415 6.55953 12.6333 6.52571 12.6333 6.49992C12.6333 6.47003 12.6443 6.42936 12.6869 6.38681L13.5536 5.52014ZM15.0261 4.43711L15.0333 4.43455L15.0318 4.45235C15.0298 4.4474 15.0279 4.44232 15.0261 4.43711ZM15.0403 4.43208L15.0678 4.42235C15.0608 4.43506 15.0538 4.4488 15.0472 4.46357C15.0444 4.45251 15.0421 4.44197 15.0403 4.43208ZM5.37077 5.65708C4.89665 5.01542 4.15826 4.66659 3.36667 4.66659H2.16667C2.09198 4.66659 2 4.60656 2 4.46659C2 4.37607 2.07614 4.29993 2.16667 4.29993H3.36667C4.22424 4.29993 5.01614 4.68107 5.56273 5.35315L5.37077 5.65708ZM14.9333 12.4404V12.6261L12.9464 14.613C12.9039 14.6556 12.8632 14.6666 12.8333 14.6666C12.8109 14.6666 12.7589 14.66 12.6711 14.5957C12.6415 14.5595 12.6333 14.5257 12.6333 14.4999C12.6333 14.47 12.6443 14.4294 12.6869 14.3868L13.5536 13.5201L14.4071 12.6666H13.2H11.3C10.4446 12.6666 9.65461 12.2874 9.10817 11.6186L9.3199 11.2967C9.79364 11.9465 10.5365 12.2999 11.3333 12.2999H13.2333H14.4404L13.5869 11.4464L12.7202 10.5797C12.6777 10.5371 12.6667 10.4965 12.6667 10.4666C12.6667 10.4367 12.6777 10.396 12.7202 10.3535C12.7628 10.3109 12.8034 10.2999 12.8333 10.2999C12.8632 10.2999 12.9039 10.3109 12.9464 10.3535L14.9333 12.3404V12.4404Z" fill="#FCFCFC" stroke="#FCFCFC"/>
</g>
<defs>
<clipPath id="clip0_334_631">
<rect width="16" height="16" fill="white" transform="translate(0.5 0.5)"/>
</clipPath>
</defs>
</svg>
