<svg width="52" height="52" viewBox="0 0 52 52" fill="none" xmlns="http://www.w3.org/2000/svg">
<g filter="url(#filter0_d_328_361)">
<rect x="6" y="4" width="40" height="40" rx="20" fill="#FCFCFC"/>
<g clip-path="url(#clip0_328_361)">
<path d="M22.0836 30.1878L22.0725 30.1954L22.0618 30.2036C22.0322 30.2264 22.0087 30.2321 21.9913 30.2332C21.9715 30.2344 21.9473 30.2301 21.9219 30.2166C21.8699 30.189 21.8333 30.1358 21.8333 30.0666V17.9333C21.8333 17.8641 21.8699 17.8109 21.9219 17.7833C21.9473 17.7698 21.9715 17.7655 21.9913 17.7667C22.0087 17.7678 22.0322 17.7735 22.0618 17.7963L22.073 17.8049L22.0847 17.8128L30.918 23.8462L30.918 23.8462L30.9226 23.8493C30.9798 23.8874 31 23.9375 31 23.9833C31 24.029 30.9798 24.0792 30.9226 24.1172L30.9226 24.1172L30.9169 24.1211L22.0836 30.1878Z" fill="#171719" stroke="#171719"/>
</g>
</g>
<defs>
<filter id="filter0_d_328_361" x="0.5" y="0.7" width="51" height="51" filterUnits="userSpaceOnUse" color-interpolation-filters="sRGB">
<feFlood flood-opacity="0" result="BackgroundImageFix"/>
<feColorMatrix in="SourceAlpha" type="matrix" values="0 0 0 0 0 0 0 0 0 0 0 0 0 0 0 0 0 0 127 0" result="hardAlpha"/>
<feOffset dy="2.2"/>
<feGaussianBlur stdDeviation="2.75"/>
<feComposite in2="hardAlpha" operator="out"/>
<feColorMatrix type="matrix" values="0 0 0 0 0 0 0 0 0 0 0 0 0 0 0 0 0 0 0.1 0"/>
<feBlend mode="normal" in2="BackgroundImageFix" result="effect1_dropShadow_328_361"/>
<feBlend mode="normal" in="SourceGraphic" in2="effect1_dropShadow_328_361" result="shape"/>
</filter>
<clipPath id="clip0_328_361">
<rect width="16" height="16" fill="white" transform="translate(18 16)"/>
</clipPath>
</defs>
</svg>
